<svg width="64" height="64" viewBox="0 0 64 64" fill="none" xmlns="http://www.w3.org/2000/svg">
<path d="M9.40688 57.0615L4.37988 0.676025H59.6199L54.5879 57.053L31.9664 63.3245L9.40688 57.0615Z" fill="#1572B6"/>
<path d="M32.0005 58.531L50.28 53.463L54.5805 5.28601H32.0005V58.531Z" fill="#33A9DC"/>
<path d="M32.0005 25.7145H41.1515L41.7835 18.633H32.0005V11.7175H49.3415L49.1755 13.573L47.4755 32.63H32.0005V25.7145Z" fill="white"/>
<path d="M32.0415 43.6745L32.011 43.6835L24.3095 41.604L23.817 36.0885H16.876L17.8445 46.947L32.01 50.8785L32.0415 50.8695V43.6745Z" fill="#EBEBEB"/>
<path d="M40.5636 32.3375L39.7306 41.5985L32.0176 43.6805V50.8755L46.1946 46.9465L46.2986 45.778L47.5016 32.3375H40.5636Z" fill="white"/>
<path d="M32.0239 11.7175V18.633H15.3199L15.1814 17.079L14.8664 13.573L14.7009 11.7175H32.0239ZM32.0004 25.7155V32.631H24.3959L24.2574 31.077L23.9419 27.571L23.7769 25.7155H32.0004Z" fill="#EBEBEB"/>
</svg>
