<svg width="64" height="64" viewBox="0 0 64 64" fill="none" xmlns="http://www.w3.org/2000/svg">
<path d="M23.9805 39.51L24.077 39.557L24.249 39.64C24.4685 39.7445 24.69 39.848 24.9135 39.9475L25.054 40.01C25.3105 40.1225 25.5685 40.2295 25.8295 40.3325L26.0185 40.4065C26.2595 40.5005 26.5045 40.5915 26.75 40.678L26.842 40.7095C27.1115 40.8035 27.3835 40.891 27.658 40.9765L27.8555 41.035C28.1345 41.1195 28.41 41.22 28.698 41.2735C46.975 44.606 52.2835 30.29 52.2835 30.29C47.8245 36.099 39.91 37.6315 32.411 35.9255C32.127 35.8615 31.851 35.7725 31.574 35.6905L31.3655 35.6275C31.0954 35.5446 30.8267 35.4573 30.5595 35.3655L30.449 35.3255C30.2108 35.2412 29.974 35.1533 29.7385 35.062L29.5395 34.984C29.2818 34.8826 29.0261 34.7763 28.7725 34.665L28.619 34.597C28.4021 34.4992 28.1865 34.3989 27.972 34.296L27.7845 34.206C27.6165 34.124 27.45 34.0365 27.284 33.951L26.95 33.776C26.7481 33.6675 26.5482 33.5553 26.3505 33.4395L26.148 33.3265C25.885 33.1709 25.6245 33.0112 25.3665 32.8475L25.156 32.7075C24.9686 32.5874 24.7833 32.4642 24.6 32.338L24.421 32.212C24.244 32.087 24.069 31.9605 23.8955 31.832L23.6625 31.6555C23.5029 31.5342 23.3449 31.4108 23.1885 31.2855L22.977 31.1155C22.7779 30.9521 22.5809 30.7863 22.386 30.618L22.3215 30.5635C22.111 30.3792 21.9036 30.1913 21.6995 30L21.5245 29.8315C21.373 29.688 21.2245 29.543 21.078 29.3945L20.903 29.2195C20.7174 29.0294 20.5349 28.8364 20.3555 28.6405L20.3285 28.6115C20.1393 28.4044 19.9541 28.1937 19.773 27.9795L19.6275 27.8065C19.4925 27.644 19.3585 27.479 19.228 27.3125L19.0815 27.1305C18.9247 26.9279 18.7708 26.7231 18.62 26.516C14.457 20.837 12.961 13.0045 16.2885 6.57201L13.339 10.313C9.55946 15.7445 10.0305 22.8115 12.917 28.5835L13.1285 28.994L13.264 29.254L13.348 29.4035L13.4985 29.673C13.588 29.831 13.6795 29.988 13.7735 30.145L13.931 30.4045C14.035 30.5725 14.1415 30.7385 14.251 30.9045L14.387 31.1155C14.5375 31.3395 14.6915 31.5635 14.85 31.7835L14.8635 31.801L14.9415 31.9065C15.079 32.096 15.2205 32.283 15.3635 32.468L15.5225 32.67C15.65 32.8305 15.7805 32.9905 15.9125 33.1495L16.0615 33.327C16.239 33.5365 16.42 33.7445 16.605 33.948L16.616 33.9595L16.637 33.9825C16.817 34.1795 17.002 34.3715 17.189 34.5645L17.366 34.743C17.511 34.889 17.658 35.0325 17.807 35.1755L17.9875 35.347C18.186 35.534 18.3865 35.7175 18.5915 35.8975L18.6015 35.905L18.7065 35.995C18.887 36.151 19.071 36.3065 19.256 36.459L19.4835 36.64C19.6345 36.761 19.7875 36.8805 19.9415 36.998L20.186 37.184C20.356 37.309 20.527 37.432 20.6995 37.5525L20.887 37.6855L20.9385 37.722C21.1025 37.835 21.27 37.943 21.4375 38.0515L21.6535 38.1955C21.91 38.358 22.171 38.5185 22.4345 38.6735L22.6505 38.7955C22.8445 38.907 23.039 39.0165 23.2365 39.1235L23.5605 39.2915L23.9805 39.51ZM25.827 21.1125C26.2365 21.6995 26.69 22.3975 27.2335 22.8695C27.4305 23.0865 27.6365 23.2975 27.8465 23.506L28.0085 23.665C28.213 23.863 28.4205 24.0575 28.6345 24.247L28.6605 24.269L28.6665 24.2755C28.904 24.4835 29.149 24.6835 29.398 24.8805L29.5645 25.0105C29.8145 25.202 30.069 25.39 30.33 25.5695L30.3525 25.586L30.7015 25.816L30.8675 25.926C31.054 26.045 31.2425 26.162 31.435 26.273L31.515 26.3195C31.6805 26.415 31.8485 26.509 32.0165 26.6L32.1945 26.6935L32.5455 26.875L32.5985 26.899C32.8395 27.0175 33.0825 27.1315 33.3305 27.24L33.492 27.3065C33.69 27.3905 33.8905 27.473 34.0915 27.55L34.3485 27.644C34.5315 27.712 34.7145 27.774 34.8995 27.8355L35.149 27.9155C35.412 27.997 35.6715 28.1 35.9455 28.1455C50.0565 30.484 53.3145 19.6185 53.3145 19.6185C50.3775 23.848 44.6905 25.8655 38.6215 24.2905C38.3533 24.2201 38.0869 24.1431 37.8225 24.0595L37.582 23.982C37.3945 23.9215 37.208 23.857 37.023 23.7895L36.771 23.6955C36.569 23.618 36.3683 23.5371 36.169 23.453L36.007 23.384C35.7588 23.276 35.5134 23.1618 35.271 23.0415L34.9015 22.8535L34.6885 22.744C34.5315 22.659 34.3755 22.57 34.2215 22.4805L34.11 22.417C33.9192 22.3057 33.7305 22.1908 33.544 22.0725L33.3735 21.958L33.0075 21.716C32.7487 21.5365 32.4945 21.3506 32.245 21.1585L32.0735 21.023C29.417 18.9265 27.3115 16.0595 26.31 12.809C25.261 9.43901 25.487 5.65501 27.3045 2.58451L25.0715 5.73751C22.3385 9.67001 22.487 14.9355 24.619 19.095C24.9756 19.794 25.3791 20.4681 25.827 21.1125ZM40.7005 16.247L41.051 16.3685L41.2055 16.4175C41.372 16.4695 41.5365 16.5305 41.708 16.5625C49.4995 18.068 51.6135 12.564 52.176 11.754C50.3245 14.4195 47.2135 15.059 43.396 14.1325C43.0834 14.053 42.775 13.9579 42.472 13.8475C42.0988 13.7149 41.7329 13.563 41.3755 13.3925C40.6971 13.0661 40.0529 12.673 39.4525 12.219C36.0365 9.62651 33.9145 4.68301 36.1435 0.656006L34.9375 2.31801C33.3265 4.68951 33.168 7.63451 34.286 10.2525C35.465 13.0325 37.881 15.2125 40.7005 16.247ZM33.1795 48.1475H31.0665C31.0067 48.1498 30.9492 48.1714 30.9027 48.2089C30.8561 48.2465 30.8229 48.2981 30.808 48.356L30.058 51.826L29.308 55.296C29.2932 55.354 29.2601 55.4056 29.2136 55.4431C29.1671 55.4807 29.1097 55.5023 29.05 55.5045H27.5545C26.075 55.5045 26.246 54.481 26.549 53.079L26.558 53.0365L26.591 52.8595L26.597 52.8265L26.6645 52.4665L26.737 52.081L26.814 51.6885L27.155 50.0225L27.4965 48.3565C27.503 48.3311 27.5034 48.3044 27.4978 48.2788C27.4922 48.2531 27.4806 48.2292 27.464 48.2088C27.4474 48.1884 27.4263 48.1722 27.4023 48.1615C27.3784 48.1508 27.3522 48.1458 27.326 48.147H25.1575C25.0977 48.1492 25.0403 48.1708 24.994 48.2085C24.9476 48.2462 24.9148 48.298 24.9005 48.356L24.434 50.568L23.968 52.7805L23.967 52.7835L23.924 52.9895C23.387 55.441 23.529 57.7795 26.448 57.853L26.533 57.8545H31.1145C31.1742 57.8523 31.2316 57.8307 31.2781 57.7931C31.3246 57.7556 31.3577 57.7039 31.3725 57.646L32.3605 53.0015L33.3485 48.3565C33.373 48.2415 33.297 48.148 33.1795 48.1475ZM10.5515 48.123H8.23146C8.17153 48.1253 8.11391 48.1468 8.06704 48.1842C8.02017 48.2216 7.9865 48.2731 7.97096 48.331L7.75096 49.302L7.53096 50.273C7.50546 50.3875 7.57996 50.481 7.69746 50.481H10.0355C10.0953 50.4788 10.1529 50.4573 10.1996 50.4197C10.2462 50.3822 10.2795 50.3305 10.2945 50.2725L10.507 49.302L10.7195 48.3315C10.744 48.217 10.669 48.123 10.5515 48.123ZM9.87846 51.145H7.53996C7.48005 51.1474 7.42247 51.1689 7.37561 51.2063C7.32876 51.2437 7.29507 51.2951 7.27946 51.353L6.95096 52.808L6.62296 54.2625L6.53146 54.6795L6.21596 56.1645L5.90096 57.65C5.87646 57.7645 5.82596 57.9495 5.78846 58.0605C5.78846 58.0605 5.35146 59.3605 4.61696 59.3455L4.52496 59.3435L3.88946 59.332C3.82976 59.3334 3.77159 59.354 3.72443 59.3906C3.67727 59.4272 3.64311 59.478 3.62696 59.5355L3.38446 60.555L3.14246 61.574C3.11496 61.688 3.18896 61.782 3.30546 61.784C3.72196 61.789 4.65496 61.7995 5.21946 61.7995C7.05396 61.7995 8.02146 60.783 8.64096 57.858L9.36646 54.501L10.047 51.3525C10.0715 51.239 9.99546 51.145 9.87846 51.145ZM52.937 50.358L52.84 49.9575L52.7445 49.5475L52.696 49.3405C52.506 48.602 51.9485 48.1765 50.7375 48.1765L48.8525 48.1745L47.1165 48.172H45.163C45.1033 48.1742 45.0459 48.1957 44.9994 48.2333C44.953 48.2709 44.92 48.3226 44.9055 48.3805L44.819 48.7885L44.717 49.2705L44.6885 49.406L43.809 53.526L42.974 57.437C42.949 57.552 42.941 57.693 42.955 57.75C42.969 57.8075 43.1945 57.8545 43.3115 57.8545H45.0735C45.191 57.8545 45.3395 57.8335 45.4035 57.8075C45.4675 57.7815 45.562 57.551 45.5855 57.4365L45.8985 55.887L46.212 54.337L46.2125 54.3345L46.2545 54.128L46.6345 52.348L46.97 50.776C46.9848 50.7182 47.0178 50.6667 47.0642 50.6291C47.1106 50.5915 47.1678 50.57 47.2275 50.5675L52.772 50.565C52.8895 50.566 52.9635 50.4725 52.937 50.358ZM60.0745 46.738L59.6475 46.7395H57.873C57.8079 46.7432 57.7445 46.7608 57.6869 46.7913C57.6294 46.8218 57.5791 46.8643 57.5395 46.916L53.615 52.665C53.549 52.762 53.4735 52.748 53.4475 52.634L53.1585 51.3675C53.1429 51.3095 53.1092 51.258 53.0622 51.2206C53.0152 51.1831 52.9575 51.1617 52.8975 51.1595H50.375C50.2575 51.1595 50.188 51.2515 50.22 51.364L51.3505 55.3245C51.3825 55.4375 51.385 55.6225 51.356 55.7365L50.8635 57.653C50.834 57.767 50.906 57.8595 51.0235 57.8595H53.517C53.5773 57.8571 53.6353 57.8358 53.683 57.7988C53.7307 57.7618 53.7656 57.7108 53.783 57.653L54.276 55.7365C54.315 55.6014 54.3763 55.4738 54.4575 55.359L60.8285 46.9035C60.8995 46.8095 60.861 46.733 60.744 46.734L60.0745 46.738ZM40.0315 51.6975V51.6955C40.0228 51.7559 39.993 51.8112 39.9473 51.8516C39.9015 51.892 39.843 51.9148 39.782 51.916H36.5835C36.4725 51.916 36.4165 51.841 36.433 51.748L36.436 51.7405L36.434 51.7415L36.4355 51.731L36.45 51.6765C36.7555 50.8645 37.3775 50.3315 38.547 50.3315C39.864 50.331 40.121 50.974 40.0315 51.6975ZM39.093 48.0055C34.9875 48.0055 34.0145 50.4975 33.4685 53.013C32.923 55.577 32.9695 57.9735 37.2185 57.9735H37.7335L37.8615 57.973H37.8915L38.4015 57.9715H38.4105C39.5325 57.967 40.658 57.9585 41.1135 57.955C41.1728 57.952 41.2296 57.93 41.2755 57.8921C41.3213 57.8543 41.3537 57.8027 41.368 57.745L41.54 56.9045L41.5735 56.741L41.7785 55.738C41.785 55.7126 41.7855 55.686 41.7798 55.6604C41.7742 55.6347 41.7626 55.6108 41.746 55.5904C41.7294 55.5701 41.7083 55.5539 41.6843 55.5433C41.6603 55.5326 41.6342 55.5277 41.608 55.529H37.7885C36.269 55.529 35.818 55.1255 35.9845 53.9385H42.09L42.0895 53.939L42.0935 53.9385C42.1418 53.9364 42.1884 53.9205 42.2279 53.8925C42.2674 53.8646 42.2979 53.8259 42.316 53.781L42.3305 53.728L42.33 53.7285C43.2365 50.309 42.9765 48.006 39.093 48.0055ZM19.688 51.6845L19.63 51.889L19.169 53.5235L18.708 55.157C18.6891 55.2149 18.653 55.2656 18.6045 55.3024C18.5559 55.3391 18.4973 55.3601 18.4365 55.3625H15.9965C14.1455 55.3625 13.6945 53.9145 14.1455 51.7795C14.596 49.5955 15.4795 48.238 17.3015 48.1005C19.7915 47.9125 20.2895 49.6635 19.688 51.6845ZM21.362 55.237C21.362 55.237 22.5125 52.443 22.7735 50.83C23.13 48.6705 22.0485 45.5375 17.8715 45.5375C13.7185 45.5375 11.9145 48.528 11.2265 51.7795C10.5385 55.0545 11.44 57.926 15.5695 57.9025L18.8275 57.8905L21.872 57.8795C21.9323 57.8765 21.9903 57.855 22.038 57.818C22.0858 57.781 22.121 57.7302 22.139 57.6725L22.6695 55.6495C22.699 55.5355 22.6275 55.4425 22.51 55.4415L22.0015 55.4385L21.493 55.4355C21.3935 55.435 21.3365 55.37 21.3485 55.2845L21.362 55.237ZM41.922 53.3665C41.922 53.3849 41.9184 53.4031 41.9114 53.4201C41.9044 53.4371 41.8941 53.4526 41.8811 53.4656C41.8682 53.4786 41.8527 53.4889 41.8358 53.496C41.8188 53.5031 41.8006 53.5067 41.7822 53.5068C41.7638 53.5068 41.7456 53.5032 41.7286 53.4962C41.7116 53.4892 41.6962 53.4789 41.6831 53.4659C41.6701 53.453 41.6598 53.4375 41.6527 53.4206C41.6456 53.4036 41.642 53.3854 41.642 53.367C41.6419 53.3299 41.6566 53.2942 41.6828 53.2679C41.709 53.2416 41.7446 53.2268 41.7817 53.2268C41.8188 53.2267 41.8545 53.2414 41.8808 53.2676C41.9071 53.2938 41.9219 53.3294 41.922 53.3665Z" fill="#0868AC"/>
</svg>
