<svg width="64" height="64" viewBox="0 0 64 64" fill="none" xmlns="http://www.w3.org/2000/svg">
<path d="M19.6334 54.485L19.4914 54.2015C19.2079 53.634 19.2079 53.0665 19.3499 52.357H4.0294L26.7269 12.07L36.2314 29.235L39.3519 26.965L29.8474 9.80001C29.7059 9.51651 28.5709 7.81451 26.7269 7.81451C25.8754 7.81451 24.5989 8.09801 23.6059 9.94201L0.624904 50.655C0.482904 51.081 -0.510096 52.925 0.340904 54.485C0.908404 55.3365 1.7599 56.1875 3.7459 56.1875H23.0384C21.0524 56.1875 20.0594 55.336 19.6334 54.485Z" fill="#00C58E"/>
<path d="M63.325 50.795L44.8835 17.6005C44.6 17.317 43.607 15.4725 41.7625 15.4725C40.9115 15.4725 39.635 15.898 38.642 17.6005L36.2305 21.5725V29.233L41.763 19.7285L60.0625 52.3555H53.1115C53.2277 53.0309 53.1284 53.7258 52.8275 54.3415L52.6855 54.4835C51.8345 56.0435 49.7065 56.1855 49.423 56.1855H60.204C60.6295 56.1855 62.6155 56.044 63.6085 54.4835C64.034 53.774 64.318 52.4975 63.325 50.795Z" fill="#108775"/>
<path d="M53.255 54.485V54.343L53.397 54.0595C53.5385 53.492 53.6805 52.9245 53.5385 52.357L52.9715 50.655L38.5025 25.4045L36.3745 21.5745H36.2325L34.1045 25.4045L19.6355 50.6545L19.0685 52.357C18.931 53.0783 19.0305 53.8248 19.352 54.485C19.9195 55.336 20.7705 56.1875 22.7565 56.1875H49.7095C50.135 56.1875 52.263 56.0455 53.256 54.485H53.255ZM36.232 29.2345L49.425 52.357H23.0395L36.232 29.2345Z" fill="#2F495E"/>
</svg>
