<svg width="137" height="48" viewBox="0 0 137 48" fill="none" xmlns="http://www.w3.org/2000/svg">
<g id="Logo" clip-path="url(#clip0_119_178)">
<g id="Group" filter="url(#filter0_f_119_178)">
<path id="Vector" d="M11.4742 26.2888V22.5036L23.2685 16.1951V19.9802L15.1222 24.2865V24.5059L23.2685 28.8122V32.5973L11.4742 26.2888ZM31.2914 32.7619L26.2171 13.6168H30.7977L33.0468 23.3539L34.1714 28.8671H34.3908L35.5428 23.3539L37.8194 13.6168H42.1805L37.1062 32.7619H31.2914ZM51.0262 33.0911C50.0022 33.0911 49.2617 32.8716 48.8045 32.4328C48.3657 31.9756 48.1462 31.4362 48.1462 30.8145V29.8545C48.1462 29.2328 48.3657 28.7025 48.8045 28.2636C49.2617 27.8065 50.0022 27.5779 51.0262 27.5779C52.0502 27.5779 52.7817 27.8065 53.2205 28.2636C53.6777 28.7025 53.9062 29.2328 53.9062 29.8545V30.8145C53.9062 31.4362 53.6777 31.9756 53.2205 32.4328C52.7817 32.8716 52.0502 33.0911 51.0262 33.0911ZM62.1485 32.7619V13.6168H66.2902V29.3882H74.5188V32.7619H62.1485ZM95.2822 36.5471L104.087 11.9162H107.735L98.9302 36.5471H95.2822ZM112.439 28.8122L120.585 24.5059V24.2865L112.439 19.9802V16.1951L124.233 22.5036V26.2888L112.439 32.5973V28.8122Z" fill="#A072FF"/>
</g>
<path id="Vector_2" d="M11.4742 26.2888V22.5036L23.2685 16.1951V19.9802L15.1222 24.2865V24.5059L23.2685 28.8122V32.5973L11.4742 26.2888ZM31.2914 32.7619L26.2171 13.6168H30.7977L33.0468 23.3539L34.1714 28.8671H34.3908L35.5428 23.3539L37.8194 13.6168H42.1805L37.1062 32.7619H31.2914ZM51.0262 33.0911C50.0022 33.0911 49.2617 32.8716 48.8045 32.4328C48.3657 31.9756 48.1462 31.4362 48.1462 30.8145V29.8545C48.1462 29.2328 48.3657 28.7025 48.8045 28.2636C49.2617 27.8065 50.0022 27.5779 51.0262 27.5779C52.0502 27.5779 52.7817 27.8065 53.2205 28.2636C53.6777 28.7025 53.9062 29.2328 53.9062 29.8545V30.8145C53.9062 31.4362 53.6777 31.9756 53.2205 32.4328C52.7817 32.8716 52.0502 33.0911 51.0262 33.0911ZM62.1485 32.7619V13.6168H66.2902V29.3882H74.5188V32.7619H62.1485ZM95.2822 36.5471L104.087 11.9162H107.735L98.9302 36.5471H95.2822ZM112.439 28.8122L120.585 24.5059V24.2865L112.439 19.9802V16.1951L124.233 22.5036V26.2888L112.439 32.5973V28.8122Z" fill="url(#paint0_linear_119_178)"/>
</g>
<defs>
<filter id="filter0_f_119_178" x="-3.52576" y="-3.0838" width="142.759" height="54.6309" filterUnits="userSpaceOnUse" color-interpolation-filters="sRGB">
<feFlood flood-opacity="0" result="BackgroundImageFix"/>
<feBlend mode="normal" in="SourceGraphic" in2="BackgroundImageFix" result="shape"/>
<feGaussianBlur stdDeviation="7.5" result="effect1_foregroundBlur_119_178"/>
</filter>
<linearGradient id="paint0_linear_119_178" x1="9.14281" y1="22.0952" x2="127.238" y2="22.0952" gradientUnits="userSpaceOnUse">
<stop stop-color="#A072FF"/>
<stop offset="0.5" stop-color="#8E5CFF"/>
<stop offset="1" stop-color="#6A40FF"/>
</linearGradient>
<clipPath id="clip0_119_178">
<rect width="136.381" height="48" fill="white"/>
</clipPath>
</defs>
</svg>
